<svg width="500" height="400" viewBox="0 0 500 400" fill="none" xmlns="http://www.w3.org/2000/svg">
  <!-- Background -->
  <rect width="500" height="400" rx="20" fill="#1A1A2E" opacity="0.1"/>
  
  <!-- Chat Window Frame -->
  <rect x="50" y="50" width="400" height="300" rx="15" fill="#F8F9FA" stroke="#D1D5DB" stroke-width="2"/>
  
  <!-- Chat Header -->
  <rect x="50" y="50" width="400" height="50" rx="15" fill="#7C3AED"/>
  <circle cx="85" cy="75" r="10" fill="white" opacity="0.8"/>
  <rect x="110" y="70" width="100" height="10" rx="5" fill="white" opacity="0.8"/>
  
  <!-- AI Message Bubble 1 -->
  <rect x="70" y="120" width="180" height="40" rx="10" fill="#F3F4F6"/>
  <circle cx="85" cy="110" r="15" fill="#7C3AED"/>
  <rect x="90" y="130" width="140" height="5" rx="2.5" fill="#6B7280"/>
  <rect x="90" y="140" width="120" height="5" rx="2.5" fill="#6B7280"/>
  
  <!-- User Message Bubble -->
  <rect x="250" y="180" width="180" height="40" rx="10" fill="#7C3AED" opacity="0.8"/>
  <circle cx="415" cy="170" r="15" fill="#4B5563"/>
  <rect x="270" y="190" width="140" height="5" rx="2.5" fill="white"/>
  <rect x="270" y="200" width="120" height="5" rx="2.5" fill="white"/>
  
  <!-- AI Message Bubble 2 -->
  <rect x="70" y="240" width="180" height="40" rx="10" fill="#F3F4F6"/>
  <circle cx="85" cy="230" r="15" fill="#7C3AED"/>
  <rect x="90" y="250" width="140" height="5" rx="2.5" fill="#6B7280"/>
  <rect x="90" y="260" width="120" height="5" rx="2.5" fill="#6B7280"/>
  
  <!-- Input Box -->
  <rect x="70" y="300" width="360" height="30" rx="15" fill="#F3F4F6" stroke="#D1D5DB" stroke-width="1"/>
  <rect x="90" y="312" width="100" height="5" rx="2.5" fill="#9CA3AF"/>
  <circle cx="410" cy="315" r="10" fill="#7C3AED"/>
  
  <!-- Decorative Elements -->
  <circle cx="450" cy="80" r="5" fill="#7C3AED" opacity="0.5"/>
  <circle cx="430" cy="100" r="3" fill="#7C3AED" opacity="0.3"/>
  <circle cx="460" cy="130" r="7" fill="#7C3AED" opacity="0.4"/>
  <circle cx="440" cy="160" r="4" fill="#7C3AED" opacity="0.6"/>
  <circle cx="455" cy="190" r="6" fill="#7C3AED" opacity="0.3"/>
  <circle cx="435" cy="220" r="5" fill="#7C3AED" opacity="0.5"/>
  <circle cx="450" cy="250" r="4" fill="#7C3AED" opacity="0.4"/>
</svg> 